<svg width="32" height="32" viewBox="0 0 32 32" xmlns="http://www.w3.org/2000/svg">
  <rect width="32" height="32" rx="6" fill="#0D1B2A"/>
  <circle cx="16" cy="16" r="13" fill="none" stroke="#C8A96E" stroke-width="0.75" opacity="0.6"/>

  <!-- S letterform -->
  <path d="
    M 21 10.5
    C 21 10.5 19 8.5 16 8.5
    C 12.5 8.5 10.5 10.5 10.5 12.5
    C 10.5 14.5 12 15.5 16 16.5
    C 20 17.5 21.5 18.5 21.5 20.5
    C 21.5 22.5 19.5 23.5 16 23.5
    C 12.5 23.5 10.5 21.5 10.5 21.5
  " fill="none" stroke="url(#gold)" stroke-width="2.2" stroke-linecap="round"/>

  <!-- Wave lines -->
  <path d="M 10.5 26 Q 13 24.5 16 26 Q 19 27.5 21.5 26" fill="none" stroke="url(#gold)" stroke-width="1" stroke-linecap="round" opacity="0.7"/>

  <defs>
    <linearGradient id="gold" x1="0%" y1="0%" x2="100%" y2="100%">
      <stop offset="0%" stop-color="#E2C57D"/>
      <stop offset="50%" stop-color="#D4AF63"/>
      <stop offset="100%" stop-color="#B68A3C"/>
    </linearGradient>
  </defs>
</svg>
